<svg xmlns="http://www.w3.org/2000/svg" xmlns:oryx="http://oryx-editor.org" id="_C0E76F93-F6D7-4D69-9975-627186D5C697" width="630.5" height="260" xmlns:xlink="http://www.w3.org/1999/xlink" xmlns:svg="http://www.w3.org/2000/svg"><defs><marker id="_A4C44875-74A4-4706-B833-DB8C9C88603Astart" refX="1" refY="5" markerUnits="userSpaceOnUse" markerWidth="17" markerHeight="11" orient="auto" fill="#000000" stroke="#000000"> 	  		<path id="_A4C44875-74A4-4706-B833-DB8C9C88603Aconditional" d="M 0 5 L 8 0 L 16 5 L 8 10 L 0 5" fill="white" stroke="#000000" stroke-width="1" display="none"/> 			<path id="_A4C44875-74A4-4706-B833-DB8C9C88603Adefault" d="M 5 0 L 11 10" fill="white" stroke="#000000" stroke-width="1" display="none"/> 	  	</marker><marker id="_A4C44875-74A4-4706-B833-DB8C9C88603Aend" refX="15" refY="6" markerUnits="userSpaceOnUse" markerWidth="15" markerHeight="12" orient="auto" fill="#000000" stroke="#000000"> 	  		<path id="_A4C44875-74A4-4706-B833-DB8C9C88603Aframe2" d="M 0 1 L 15 6 L 0 11z" fill="#000000" stroke="#000000" stroke-linejoin="round" stroke-width="2"/> 	  	</marker><marker id="_66F344BC-70CD-4C93-9E43-C62F13F38218start" refX="1" refY="5" markerUnits="userSpaceOnUse" markerWidth="17" markerHeight="11" orient="auto" fill="#000000" stroke="#000000"> 	  		<path id="_66F344BC-70CD-4C93-9E43-C62F13F38218conditional" d="M 0 5 L 8 0 L 16 5 L 8 10 L 0 5" fill="white" stroke="#000000" stroke-width="1" display="none"/> 			<path id="_66F344BC-70CD-4C93-9E43-C62F13F38218default" d="M 5 0 L 11 10" fill="white" stroke="#000000" stroke-width="1" display="none"/> 	  	</marker><marker id="_66F344BC-70CD-4C93-9E43-C62F13F38218end" refX="15" refY="6" markerUnits="userSpaceOnUse" markerWidth="15" markerHeight="12" orient="auto" fill="#000000" stroke="#000000"> 	  		<path id="_66F344BC-70CD-4C93-9E43-C62F13F38218frame2" d="M 0 1 L 15 6 L 0 11z" fill="#000000" stroke="#000000" stroke-linejoin="round" stroke-width="2"/> 	  	</marker></defs><g stroke="none" font-family="Verdana, sans-serif" font-size-adjust="none" font-style="normal" font-variant="normal" font-weight="normal" line-heigth="normal" font-size="12"><g class="stencils" transform="translate(15, 16)"><g class="me"/><g class="children"><g id="_CE0D73BE-AFA1-4A43-888F-9E083E4A5678" bpmn2nodeid="_BB6C1436-6735-4277-8FDB-F27F1878E00A"><g class="stencils" transform="translate(115.5, 126)"><g class="me"><g pointer-events="fill" id="_CE0D73BE-AFA1-4A43-888F-9E083E4A5678">        <defs id="_CE0D73BE-AFA1-4A43-888F-9E083E4A5678__CE0D73BE-AFA1-4A43-888F-9E083E4A5678_5"> 		<radialGradient id="_CE0D73BE-AFA1-4A43-888F-9E083E4A5678background" cx="10%" cy="10%" r="100%" fx="10%" fy="10%"> 			<stop offset="0%" stop-color="#ffffff" stop-opacity="1" id="_CE0D73BE-AFA1-4A43-888F-9E083E4A5678__CE0D73BE-AFA1-4A43-888F-9E083E4A5678_6"/> 			<stop id="_CE0D73BE-AFA1-4A43-888F-9E083E4A5678fill_el" offset="100%" stop-color="#9acd32" stop-opacity="1"/> 		</radialGradient> 	</defs> 	     <circle id="_CE0D73BE-AFA1-4A43-888F-9E083E4A5678bg_frame" cx="15" cy="15" r="15" stroke="#000000" fill="url(#_CE0D73BE-AFA1-4A43-888F-9E083E4A5678background) white" stroke-width="1" style="stroke-dasharray: 5.5, 3"/>      <circle id="_CE0D73BE-AFA1-4A43-888F-9E083E4A5678frame" cx="15" cy="15" r="15" stroke="#000000" fill="none" stroke-width="1" display="inherit"/>  	<text font-size="11" id="_CE0D73BE-AFA1-4A43-888F-9E083E4A5678text_name" x="15" y="32" oryx:align="top center" stroke="black" stroke-width="0pt" letter-spacing="-0.01px" fill="#000000" text-anchor="middle" transform="rotate(0 15 32)" visibility="inherit" oryx:fontSize="11"/>   </g></g><g class="children" style="overflow:hidden"/><g class="edge"/></g><g class="controls"><g class="dockers"/><g class="magnets" transform="translate(115.5, 126)"><g pointer-events="all" display="none" transform="translate(7, 7)"><circle cx="8" cy="8" r="4" stroke="none" fill="red" fill-opacity="0.3"/></g></g></g></g><g id="_FFE23F22-9B16-4129-91A6-9216502ACDA8" bpmn2nodeid="_A5F8DC4C-64CD-4BC1-A2E8-4BA958837169"><g class="stencils" transform="translate(286.5, 113)"><g class="me"><g pointer-events="fill" oryx:minimumSize="50 40" id="_FFE23F22-9B16-4129-91A6-9216502ACDA8">   	<defs id="_FFE23F22-9B16-4129-91A6-9216502ACDA8__FFE23F22-9B16-4129-91A6-9216502ACDA8_17"> 		<radialGradient id="_FFE23F22-9B16-4129-91A6-9216502ACDA8background" cx="10%" cy="10%" r="100%" fx="10%" fy="10%"> 			<stop offset="0%" stop-color="#ffffff" stop-opacity="1" id="_FFE23F22-9B16-4129-91A6-9216502ACDA8__FFE23F22-9B16-4129-91A6-9216502ACDA8_18"/> 			<stop id="_FFE23F22-9B16-4129-91A6-9216502ACDA8fill_el" offset="100%" stop-color="#fafad2" stop-opacity="1"/> 		</radialGradient> 		<radialGradient id="_FFE23F22-9B16-4129-91A6-9216502ACDA8borderbackground" cx="10%" cy="10%" r="100%" fx="10%" fy="10%"> 			<stop offset="0%" stop-color="#ffffff" stop-opacity="1" id="_FFE23F22-9B16-4129-91A6-9216502ACDA8__FFE23F22-9B16-4129-91A6-9216502ACDA8_19"/> 			<stop id="_FFE23F22-9B16-4129-91A6-9216502ACDA8fill_border" offset="100%" stop-color="#000000" stop-opacity="1" stroke="#000000"/> 		</radialGradient> 	</defs> 	 	<rect id="_FFE23F22-9B16-4129-91A6-9216502ACDA8text_frame" oryx:anchors="bottom top right left" x="1" y="1" width="148" height="101" rx="10" ry="10" stroke="none" stroke-width="0" fill="none"/> 	<rect id="_FFE23F22-9B16-4129-91A6-9216502ACDA8bg_frame" oryx:resize="vertical horizontal" x="0" y="0" width="154" height="102" rx="10" ry="10" stroke="#000000" stroke-width="1" fill="url(#_FFE23F22-9B16-4129-91A6-9216502ACDA8background) #ffffcc"/> 		<text font-size="12" id="_FFE23F22-9B16-4129-91A6-9216502ACDA8text_name" x="77" y="51" oryx:align="middle center" oryx:fittoelem="text_frame" stroke="black" text-anchor="middle" stroke-width="0pt" letter-spacing="-0.01px" fill="#000000" transform="rotate(0 77 51)" visibility="inherit" oryx:fontSize="12"><tspan x="77" y="51" dy="5" id="ext-gen772">Task</tspan></text>     <g id="_FFE23F22-9B16-4129-91A6-9216502ACDA8manualTask" transform="scale(0.7,0.7) translate(8,8)" display="none">     	<path oryx:anchors="top left" id="_FFE23F22-9B16-4129-91A6-9216502ACDA8frame" style="opacity:1;fill:none;fill-opacity:1;stroke-width:1" d="M0.5,3.751l4.083-3.25c0,0,11.166,0.083,12.083,0.083s-2.417,2.917-1.5,2.917     s11.667,0,12.584,0c1.166,1.708-0.168,3.167-0.834,3.667s0.875,1.917-1,4.417c-0.75,0.25,0.75,1.875-1.333,3.333     c-1.167,0.583,0.583,1.542-1.25,2.833c-1.167,0-20.833,0.083-20.833,0.083l-2-1.333V3.751z" stroke="#000000"/> 		<path id="_FFE23F22-9B16-4129-91A6-9216502ACDA8frame2" oryx:anchors="top left" style="opacity:1;fill:none;stroke-width:2" d="M 13.5 7 L 27 7" stroke="#000000"/> 		<path id="_FFE23F22-9B16-4129-91A6-9216502ACDA8frame3" oryx:anchors="top left" style="opacity:1;fill:none;stroke-width:2" d="M 13.5 11 L 26 11" stroke="#000000"/> 		<path id="_FFE23F22-9B16-4129-91A6-9216502ACDA8frame4" oryx:anchors="top left" style="opacity:1;fill:none;stroke-width:1.5" d="M 14 14.5 L 25 14.5" stroke="#000000"/> 		<path id="_FFE23F22-9B16-4129-91A6-9216502ACDA8frame5" oryx:anchors="top left" style="opacity:1;fill:none;stroke-width:1.5" d="M 8.2 3.1 L 15 3.1" stroke="#000000"/> 	</g> 	 	<g id="_FFE23F22-9B16-4129-91A6-9216502ACDA8businessRuleTask" transform="scale(0.7,0.7) translate(8,8)" display="none"> 		<rect id="_FFE23F22-9B16-4129-91A6-9216502ACDA8frame6" oryx:anchors="top left" x="0" y="0" width="22" height="4" style="opacity:1;fill:#B3B1B3;fill-opacity:1;" stroke="#000000"/> 		<rect id="_FFE23F22-9B16-4129-91A6-9216502ACDA8frame7" oryx:anchors="top left" x="0" y="4" style="opacity:1;fill:none;" width="22" height="12" stroke="#000000"/> 		<path id="_FFE23F22-9B16-4129-91A6-9216502ACDA8frame8" oryx:anchors="top left" style="opacity:1;fill:none;" d="M 0 10 L 22 10" stroke="#000000"/> 		<path id="_FFE23F22-9B16-4129-91A6-9216502ACDA8frame9" oryx:anchors="top left" style="opacity:1; fill:none;" d="M 7 4 L 7 16" stroke="#000000"/> 	</g> 	 	<g id="_FFE23F22-9B16-4129-91A6-9216502ACDA8scriptTask" transform="scale(0.7,0.7) translate(8,8)" display="none"> 		<path oryx:anchors="top left" id="_FFE23F22-9B16-4129-91A6-9216502ACDA8frame10" style="opacity:1;fill:none;" stroke="#000000" d="M6.402,0.5h14.5c0,0-5.833,2.833-5.833,5.583s4.417,6,4.417,9.167    s-4.167,5.083-4.167,5.083H0.235c0,0,5-2.667,5-5s-4.583-6.75-4.583-9.25S6.402,0.5,6.402,0.5z"/> 		<path oryx:anchors="top left" id="_FFE23F22-9B16-4129-91A6-9216502ACDA8frame11" style="opacity:1;fill:none;stroke-width:1.5" d="M 3.5 4.5 L 13.5 4.5" stroke="#000000"/> 		<path oryx:anchors="top left" id="_FFE23F22-9B16-4129-91A6-9216502ACDA8frame12" style="opacity:1;fill:none;stroke-width:1.5" d="M 3.8 8.5 L 13.8 8.5" stroke="#000000"/> 		<path oryx:anchors="top left" id="_FFE23F22-9B16-4129-91A6-9216502ACDA8frame13" style="opacity:1;fill:none;stroke-width:1.5" d="M 6.3 12.5 L 16.3 12.5" stroke="#000000"/> 		<path oryx:anchors="top left" id="_FFE23F22-9B16-4129-91A6-9216502ACDA8frame14" style="opacity:1;fill:none;stroke-width:1.5" d="M 6.5 16.5 L 16.5 16.5" stroke="#000000"/> 	</g> 	 	<g id="_FFE23F22-9B16-4129-91A6-9216502ACDA8userTask" transform="scale(0.7,0.7) translate(8,8)" display="none"> 		<path id="_FFE23F22-9B16-4129-91A6-9216502ACDA8frame15" oryx:anchors="top left" style="opacity:1;fill:#F4F6F7" stroke="#000000" d="M0.585,24.167h24.083v-7.833c0,0-2.333-3.917-7.083-5.167h-9.25    c-4.417,1.333-7.833,5.75-7.833,5.75L0.585,24.167z"/> 		<path id="_FFE23F22-9B16-4129-91A6-9216502ACDA8frame16" oryx:anchors="top left" style="opacity:1;fill:none" d="M 6 20 L 6 24" stroke="#000000"/> 		<path id="_FFE23F22-9B16-4129-91A6-9216502ACDA8frame17" oryx:anchors="top left" style="opacity:1;fill:none" d="M 20 20 L 20 24" stroke="#000000"/> 		<circle id="_FFE23F22-9B16-4129-91A6-9216502ACDA8frame18" oryx:anchors="top left" fill="black" cx="13.002" cy="5.916" r="5.417" stroke="#000000"/> 		<path id="_FFE23F22-9B16-4129-91A6-9216502ACDA8frame19" oryx:anchors="top left" style="opacity:1;fill:#F0EFF0;" stroke="#000000" d="M8.043,7.083c0,0,2.814-2.426,5.376-1.807s4.624-0.693,4.624-0.693    c0.25,1.688,0.042,3.75-1.458,5.584c0,0,1.083,0.75,1.083,1.5s0.125,1.875-1,3s-5.5,1.25-6.75,0S8.668,12.834,8.668,12    s0.583-1.25,1.25-1.917C8.835,9.5,7.419,7.708,8.043,7.083z"/> 	</g> 	 	<g id="_FFE23F22-9B16-4129-91A6-9216502ACDA8serviceTask" transform="scale(0.7,0.7) translate(8,8)" display="none"> 		<polygon oryx:anchors="top left" id="_FFE23F22-9B16-4129-91A6-9216502ACDA8frame20" style="opacity:1;fill:#ffffff" stroke="#000000" points="15.392,5.064 17.954,2.502 20.347,4.895 17.786,7.455     18.729,9.732 22.353,9.732 22.353,13.115 18.731,13.115 17.788,15.392 20.351,17.955 17.958,20.347 15.397,17.786 13.12,18.729     13.12,22.353 9.737,22.353 9.737,18.731 7.46,17.788 4.897,20.35 2.506,17.958 5.066,15.397 4.124,13.12 0.5,13.12 0.5,9.737     4.121,9.737 5.065,7.461 2.503,4.898 4.895,2.506 7.455,5.066 9.732,4.125 9.732,0.5 13.116,0.5 13.116,4.121 "/> 		<circle oryx:anchors="top left" id="_FFE23F22-9B16-4129-91A6-9216502ACDA8frame21" style="opacity:1;fill:none" stroke="#000000" cx="11.427" cy="11.426" r="3.714"/> 		<polygon oryx:anchors="top left" id="_FFE23F22-9B16-4129-91A6-9216502ACDA8frame22" style="opacity:1;fill:#ffffff" stroke="#000000" points="21.392,11.064 23.954,8.502 26.347,10.895 23.786,13.455     24.729,15.732 28.353,15.732 28.353,19.115 24.731,19.115 23.788,21.392 26.351,23.955 23.958,26.347 21.397,23.786 19.12,24.729     19.12,28.353 15.737,28.353 15.737,24.731 13.46,23.788 10.897,26.35 8.506,23.958 11.066,21.397 10.124,19.12 6.5,19.12     6.5,15.737 10.121,15.737 11.065,13.461 8.503,10.898 10.895,8.506 13.455,11.066 15.732,10.125 15.732,6.5 19.116,6.5     19.116,10.121 "/> 		<circle oryx:anchors="top left" id="_FFE23F22-9B16-4129-91A6-9216502ACDA8frame23" style="opacity:1;fill:none;" stroke="#000000" cx="17.427" cy="17.426" r="3.714"/> 	</g> 	 	<g id="_FFE23F22-9B16-4129-91A6-9216502ACDA8sendTask" display="none"> 		<path id="_FFE23F22-9B16-4129-91A6-9216502ACDA8stframe24" oryx:anchors="left top" stroke="#FFFFFF" fill="black" stroke-width="1" d="M8,11 L8,21 L24,21 L24,11 L16,17z"/> 		<path id="_FFE23F22-9B16-4129-91A6-9216502ACDA8stframe25" oryx:anchors="left top" stroke="#FFFFFF" fill="black" stroke-width="1" d="M7,10 L16,17 L25 10z"/> 	</g> 	 	<g id="_FFE23F22-9B16-4129-91A6-9216502ACDA8receiveTask" display="inherit"> 		<path id="_FFE23F22-9B16-4129-91A6-9216502ACDA8frame26" oryx:anchors="left top" stroke="#000000" fill="none" stroke-width="1" d="M8,11 L8,21 L24,21 L24,11z M8,11 L16,17 L24,11"/> 	</g> 	 	<g id="_FFE23F22-9B16-4129-91A6-9216502ACDA8none" display="none"/>  	<g id="_FFE23F22-9B16-4129-91A6-9216502ACDA8sequential" display="none">         <path oryx:anchors="bottom" fill="none" stroke="#000000" stroke-width="2" d=" M73.54 98  h10  M73.54 94  h10  M73.54 90  h10 " id="_FFE23F22-9B16-4129-91A6-9216502ACDA8__FFE23F22-9B16-4129-91A6-9216502ACDA8_20"/>     </g>   </g></g><g class="children" style="overflow:hidden"/><g class="edge"/></g><g class="controls"><g class="dockers"/><g class="magnets" transform="translate(286.5, 113)"><g pointer-events="all" display="none" transform="translate(-7, 17.5)"><circle cx="8" cy="8" r="4" stroke="none" fill="red" fill-opacity="0.3"/></g><g pointer-events="all" display="none" transform="translate(-7, 43)"><circle cx="8" cy="8" r="4" stroke="none" fill="red" fill-opacity="0.3"/></g><g pointer-events="all" display="none" transform="translate(-7, 68.5)"><circle cx="8" cy="8" r="4" stroke="none" fill="red" fill-opacity="0.3"/></g><g pointer-events="all" display="none" transform="translate(30.5, 93)"><circle cx="8" cy="8" r="4" stroke="none" fill="red" fill-opacity="0.3"/></g><g pointer-events="all" display="none" transform="translate(69, 93)"><circle cx="8" cy="8" r="4" stroke="none" fill="red" fill-opacity="0.3"/></g><g pointer-events="all" display="none" transform="translate(107.5, 93)"><circle cx="8" cy="8" r="4" stroke="none" fill="red" fill-opacity="0.3"/></g><g pointer-events="all" display="none" transform="translate(145, 17.5)"><circle cx="8" cy="8" r="4" stroke="none" fill="red" fill-opacity="0.3"/></g><g pointer-events="all" display="none" transform="translate(145, 43)"><circle cx="8" cy="8" r="4" stroke="none" fill="red" fill-opacity="0.3"/></g><g pointer-events="all" display="none" transform="translate(145, 68.5)"><circle cx="8" cy="8" r="4" stroke="none" fill="red" fill-opacity="0.3"/></g><g pointer-events="all" display="none" transform="translate(30.5, -7)"><circle cx="8" cy="8" r="4" stroke="none" fill="red" fill-opacity="0.3"/></g><g pointer-events="all" display="none" transform="translate(69, -7)"><circle cx="8" cy="8" r="4" stroke="none" fill="red" fill-opacity="0.3"/></g><g pointer-events="all" display="none" transform="translate(107.5, -7)"><circle cx="8" cy="8" r="4" stroke="none" fill="red" fill-opacity="0.3"/></g><g pointer-events="all" display="none" transform="translate(69, 43)"><circle cx="8" cy="8" r="4" stroke="none" fill="red" fill-opacity="0.3"/></g></g></g></g><g id="_B00C8AFD-9CD1-4C03-8C5B-B81E528F042F" bpmn2nodeid="_80A13851-18C6-49E3-919C-7E5E976A8B83"><g class="stencils" transform="translate(562.5, 126)"><g class="me"><g pointer-events="fill" id="_B00C8AFD-9CD1-4C03-8C5B-B81E528F042F">      <defs id="_B00C8AFD-9CD1-4C03-8C5B-B81E528F042F__B00C8AFD-9CD1-4C03-8C5B-B81E528F042F_5"> 		<radialGradient id="_B00C8AFD-9CD1-4C03-8C5B-B81E528F042Fbackground" cx="10%" cy="10%" r="100%" fx="10%" fy="10%"> 			<stop offset="0%" stop-color="#ffffff" stop-opacity="1" id="_B00C8AFD-9CD1-4C03-8C5B-B81E528F042F__B00C8AFD-9CD1-4C03-8C5B-B81E528F042F_6"/> 			<stop id="_B00C8AFD-9CD1-4C03-8C5B-B81E528F042Ffill_el" offset="100%" stop-color="#ff6347" stop-opacity="1"/> 		</radialGradient> 	</defs> 	     <circle id="_B00C8AFD-9CD1-4C03-8C5B-B81E528F042Fbg_frame" cx="14" cy="14" r="14" stroke="#000000" fill="url(#_B00C8AFD-9CD1-4C03-8C5B-B81E528F042Fbackground) white" stroke-width="3"/> 	<text font-size="11" id="_B00C8AFD-9CD1-4C03-8C5B-B81E528F042Ftext_name" x="14" y="30" oryx:align="top center" stroke="black" stroke-width="0pt" letter-spacing="-0.01px" fill="#000000" text-anchor="middle" transform="rotate(0 14 30)" visibility="inherit" oryx:fontSize="11"/>   </g></g><g class="children" style="overflow:hidden"/><g class="edge"/></g><g class="controls"><g class="dockers"/><g class="magnets" transform="translate(562.5, 126)"><g pointer-events="all" display="none" transform="translate(6, 6)"><circle cx="8" cy="8" r="4" stroke="none" fill="red" fill-opacity="0.3"/></g></g></g></g></g><g class="edge"><g id="_A4C44875-74A4-4706-B833-DB8C9C88603A" bpmn2nodeid="_C9EF6505-E75C-4EC0-AA58-5B16FDCD1B98"><g class="stencils"><g class="me"><g pointer-events="painted" bpmn2nodeid="_35DDDA49-C5FC-42E6-80D5-E22FF558727F"><path id="_A4C44875-74A4-4706-B833-DB8C9C88603A_1" d="M441.0405868653325 155.263032465878L562.1937881346674 141.611967534122 " stroke="#000000" fill="none" stroke-width="2" stroke-linecap="round" stroke-linejoin="round" marker-start="url(#_A4C44875-74A4-4706-B833-DB8C9C88603Astart)" marker-end="url(#_A4C44875-74A4-4706-B833-DB8C9C88603Aend)"/></g><text id="_A4C44875-74A4-4706-B833-DB8C9C88603Atext_name" font-size="12" x="455.0405868653325" y="141.263032465878" oryx:edgePosition="startTop" stroke-width="0pt" letter-spacing="-0.01px" fill="#000000" text-anchor="start" transform="rotate(353.57125225117016 441.0405868653325 155.263032465878)" visibility="inherit" oryx:fontSize="12"/></g><g class="children" style="overflow:hidden"/><g class="edge"/></g><g class="controls"><g class="dockers"/><g class="magnets"/></g></g><g id="_66F344BC-70CD-4C93-9E43-C62F13F38218" bpmn2nodeid="_79C3ED4D-E9F3-4518-84C8-8BA503A9F920"><g class="stencils"><g class="me"><g pointer-events="painted" bpmn2nodeid="_3598E878-9BBC-4220-9CDB-10D9E18FA13E"><path id="_66F344BC-70CD-4C93-9E43-C62F13F38218_1" d="M146.05766324543978 142.5357349984769L286.0517117545602 156.3548900015231 " stroke="#000000" fill="none" stroke-width="2" stroke-linecap="round" stroke-linejoin="round" marker-start="url(#_66F344BC-70CD-4C93-9E43-C62F13F38218start)" marker-end="url(#_66F344BC-70CD-4C93-9E43-C62F13F38218end)"/></g><text id="_66F344BC-70CD-4C93-9E43-C62F13F38218text_name" font-size="12" x="160.05766324543978" y="128.5357349984769" oryx:edgePosition="startTop" stroke-width="0pt" letter-spacing="-0.01px" fill="#000000" text-anchor="start" transform="rotate(5.63754288445989 146.05766324543978 142.5357349984769)" visibility="inherit" oryx:fontSize="12"/></g><g class="children" style="overflow:hidden"/><g class="edge"/></g><g class="controls"><g class="dockers"/><g class="magnets"/></g></g></g><text id="_86B6D96B-06CD-4FCE-9BA6-8EC1BC5B9AD4" style="stroke-width:1;fill:rgb(177,194,214);font-family:arial;font-weight:bold" font-size="12" onclick="ORYX.Plugins.CanvasTitle.openTextualAnalysis()" onmouseover="ORYX.Plugins.CanvasTitle.addToolTip('_86B6D96B-06CD-4FCE-9BA6-8EC1BC5B9AD4')" transform="translate(10, 20)">sendMail v.1.0 (workingProcessBackup.sendMail)</text><text id="_86B6D96B-06CD-4FCE-9BA6-8EC1BC5B9AD4" style="stroke-width:1;fill:rgb(177,194,214);font-family:arial;font-weight:bold" font-size="12" onclick="ORYX.Plugins.CanvasTitle.openTextualAnalysis()" onmouseover="ORYX.Plugins.CanvasTitle.addToolTip('_86B6D96B-06CD-4FCE-9BA6-8EC1BC5B9AD4')" transform="translate(10, 20)">sendMail v.1.0 (workingProcessBackup.sendMail)</text></g></g></svg>